<mxfile host="Electron" modified="2024-05-05T07:32:52.638Z" agent="Mozilla/5.0 (Windows NT 10.0; Win64; x64) AppleWebKit/537.36 (KHTML, like Gecko) draw.io/21.2.8 Chrome/112.0.5615.165 Electron/24.2.0 Safari/537.36" etag="-xUsKOHsZGqrIYU9eO37" version="21.2.8" type="device">
  <diagram name="Page-1" id="ac0-5Axkzdwwxx8cRdzC">
    <mxGraphModel dx="1716" dy="1748" grid="1" gridSize="10" guides="1" tooltips="1" connect="1" arrows="1" fold="1" page="1" pageScale="1" pageWidth="827" pageHeight="1169" math="0" shadow="0">
      <root>
        <mxCell id="0" />
        <mxCell id="1" parent="0" />
        <mxCell id="ugWdAH9gTy0CYIlYv7zM-1" value="&lt;font face=&quot;Verdana&quot; style=&quot;font-size: 16px;&quot;&gt;&lt;b&gt;0&lt;/b&gt;&lt;/font&gt;" style="rounded=0;whiteSpace=wrap;html=1;fillColor=#e1d5e7;strokeColor=#0d0c0d;" parent="1" vertex="1">
          <mxGeometry x="-720" y="240" width="40" height="30" as="geometry" />
        </mxCell>
        <mxCell id="ugWdAH9gTy0CYIlYv7zM-2" value="&lt;font face=&quot;Verdana&quot; style=&quot;font-size: 16px;&quot;&gt;&lt;b&gt;3&lt;/b&gt;&lt;/font&gt;" style="rounded=0;whiteSpace=wrap;html=1;fillColor=#b1ddf0;strokeColor=#161717;" parent="1" vertex="1">
          <mxGeometry x="-560" y="180" width="40" height="60" as="geometry" />
        </mxCell>
        <mxCell id="ugWdAH9gTy0CYIlYv7zM-3" value="&lt;font face=&quot;Verdana&quot; style=&quot;font-size: 16px;&quot;&gt;&lt;b&gt;2&lt;/b&gt;&lt;/font&gt;" style="rounded=0;whiteSpace=wrap;html=1;fillColor=#b1ddf0;strokeColor=#161717;" parent="1" vertex="1">
          <mxGeometry x="-520" y="200" width="40" height="40" as="geometry" />
        </mxCell>
        <mxCell id="ugWdAH9gTy0CYIlYv7zM-4" value="&lt;font face=&quot;Verdana&quot; style=&quot;font-size: 16px;&quot;&gt;&lt;b&gt;1&lt;/b&gt;&lt;/font&gt;" style="rounded=0;whiteSpace=wrap;html=1;fillColor=#b1ddf0;strokeColor=#161717;" parent="1" vertex="1">
          <mxGeometry x="-480" y="220" width="40" height="20" as="geometry" />
        </mxCell>
        <mxCell id="ugWdAH9gTy0CYIlYv7zM-5" value="&lt;font face=&quot;Verdana&quot; style=&quot;font-size: 16px;&quot;&gt;&lt;b&gt;1&lt;/b&gt;&lt;/font&gt;" style="rounded=0;whiteSpace=wrap;html=1;fillColor=#e1d5e7;strokeColor=#0d0c0d;" parent="1" vertex="1">
          <mxGeometry x="-680" y="240" width="40" height="30" as="geometry" />
        </mxCell>
        <mxCell id="ugWdAH9gTy0CYIlYv7zM-6" value="&lt;font face=&quot;Verdana&quot; style=&quot;font-size: 16px;&quot;&gt;&lt;b&gt;2&lt;/b&gt;&lt;/font&gt;" style="rounded=0;whiteSpace=wrap;html=1;fillColor=#e1d5e7;strokeColor=#0d0c0d;" parent="1" vertex="1">
          <mxGeometry x="-640" y="240" width="40" height="30" as="geometry" />
        </mxCell>
        <mxCell id="DwyBziVhjBW1dfS6EaBD-1" value="&lt;font face=&quot;Verdana&quot; style=&quot;font-size: 16px;&quot;&gt;&lt;b&gt;3&lt;/b&gt;&lt;/font&gt;" style="rounded=0;whiteSpace=wrap;html=1;fillColor=#e1d5e7;strokeColor=#0d0c0d;" parent="1" vertex="1">
          <mxGeometry x="-600" y="240" width="40" height="30" as="geometry" />
        </mxCell>
        <mxCell id="DwyBziVhjBW1dfS6EaBD-2" value="&lt;font face=&quot;Verdana&quot; style=&quot;font-size: 16px;&quot;&gt;&lt;b&gt;4&lt;/b&gt;&lt;/font&gt;" style="rounded=0;whiteSpace=wrap;html=1;fillColor=#e1d5e7;strokeColor=#0d0c0d;" parent="1" vertex="1">
          <mxGeometry x="-560" y="240" width="40" height="30" as="geometry" />
        </mxCell>
        <mxCell id="DwyBziVhjBW1dfS6EaBD-3" value="&lt;font face=&quot;Verdana&quot; style=&quot;font-size: 16px;&quot;&gt;&lt;b&gt;5&lt;/b&gt;&lt;/font&gt;" style="rounded=0;whiteSpace=wrap;html=1;fillColor=#e1d5e7;strokeColor=#0d0c0d;" parent="1" vertex="1">
          <mxGeometry x="-520" y="240" width="40" height="30" as="geometry" />
        </mxCell>
        <mxCell id="DwyBziVhjBW1dfS6EaBD-5" value="&lt;font face=&quot;Verdana&quot; style=&quot;font-size: 16px;&quot;&gt;&lt;b&gt;4&lt;/b&gt;&lt;/font&gt;" style="rounded=0;whiteSpace=wrap;html=1;fillColor=#b1ddf0;strokeColor=#161717;" parent="1" vertex="1">
          <mxGeometry x="-600" y="160" width="40" height="80" as="geometry" />
        </mxCell>
        <mxCell id="DwyBziVhjBW1dfS6EaBD-6" value="&lt;font face=&quot;Verdana&quot;&gt;&lt;span style=&quot;font-size: 16px;&quot;&gt;&lt;b&gt;5&lt;/b&gt;&lt;/span&gt;&lt;/font&gt;" style="rounded=0;whiteSpace=wrap;html=1;fillColor=#b1ddf0;strokeColor=#161717;" parent="1" vertex="1">
          <mxGeometry x="-640" y="140" width="40" height="100" as="geometry" />
        </mxCell>
        <mxCell id="Awt-DgbT7jhiaurr5O_n-1" value="&lt;font face=&quot;Verdana&quot; style=&quot;font-size: 16px;&quot;&gt;&lt;b&gt;6&lt;/b&gt;&lt;/font&gt;" style="rounded=0;whiteSpace=wrap;html=1;fillColor=#e1d5e7;strokeColor=#0d0c0d;" parent="1" vertex="1">
          <mxGeometry x="-480" y="240" width="41" height="30" as="geometry" />
        </mxCell>
        <mxCell id="Awt-DgbT7jhiaurr5O_n-3" value="&lt;font face=&quot;Verdana&quot;&gt;&lt;span style=&quot;font-size: 16px;&quot;&gt;&lt;b&gt;7&lt;/b&gt;&lt;/span&gt;&lt;/font&gt;" style="rounded=0;whiteSpace=wrap;html=1;fillColor=#b1ddf0;strokeColor=#161717;" parent="1" vertex="1">
          <mxGeometry x="-680" y="100" width="40" height="140" as="geometry" />
        </mxCell>
        <mxCell id="Awt-DgbT7jhiaurr5O_n-4" value="&lt;font face=&quot;Verdana&quot;&gt;&lt;span style=&quot;font-size: 16px;&quot;&gt;&lt;b&gt;8&lt;/b&gt;&lt;/span&gt;&lt;/font&gt;" style="rounded=0;whiteSpace=wrap;html=1;fillColor=#b1ddf0;strokeColor=#161717;" parent="1" vertex="1">
          <mxGeometry x="-720" y="80" width="40" height="160" as="geometry" />
        </mxCell>
        <mxCell id="w6YqWCxdYL73jzeexSl1-2" value="&lt;font style=&quot;font-size: 16px;&quot; face=&quot;Verdana&quot;&gt;left&lt;br&gt;i&lt;br&gt;&lt;/font&gt;" style="text;html=1;align=center;verticalAlign=middle;resizable=0;points=[];autosize=1;strokeColor=none;fillColor=none;" parent="1" vertex="1">
          <mxGeometry x="-725" y="-6" width="50" height="50" as="geometry" />
        </mxCell>
        <mxCell id="w6YqWCxdYL73jzeexSl1-4" value="&lt;font style=&quot;font-size: 16px;&quot; face=&quot;Verdana&quot;&gt;right&lt;br&gt;j&lt;br&gt;&lt;/font&gt;" style="text;html=1;align=center;verticalAlign=middle;resizable=0;points=[];autosize=1;strokeColor=none;fillColor=none;" parent="1" vertex="1">
          <mxGeometry x="-490" y="-8" width="60" height="50" as="geometry" />
        </mxCell>
        <mxCell id="31-ez5-0cQZQDLvbxCD5-1" value="" style="endArrow=classic;html=1;rounded=0;" edge="1" parent="1">
          <mxGeometry width="50" height="50" relative="1" as="geometry">
            <mxPoint x="-700" y="40" as="sourcePoint" />
            <mxPoint x="-700" y="80" as="targetPoint" />
          </mxGeometry>
        </mxCell>
        <mxCell id="31-ez5-0cQZQDLvbxCD5-2" value="" style="endArrow=classic;html=1;rounded=0;entryX=0;entryY=0.5;entryDx=0;entryDy=0;" edge="1" parent="1">
          <mxGeometry width="50" height="50" relative="1" as="geometry">
            <mxPoint x="-460" y="40" as="sourcePoint" />
            <mxPoint x="-460" y="220" as="targetPoint" />
          </mxGeometry>
        </mxCell>
        <mxCell id="31-ez5-0cQZQDLvbxCD5-3" value="&lt;font face=&quot;Verdana&quot; style=&quot;font-size: 16px;&quot;&gt;&lt;b&gt;0&lt;/b&gt;&lt;/font&gt;" style="rounded=0;whiteSpace=wrap;html=1;fillColor=#e1d5e7;strokeColor=#0d0c0d;" vertex="1" parent="1">
          <mxGeometry x="-390" y="240" width="40" height="30" as="geometry" />
        </mxCell>
        <mxCell id="31-ez5-0cQZQDLvbxCD5-4" value="&lt;font face=&quot;Verdana&quot; style=&quot;font-size: 16px;&quot;&gt;&lt;b&gt;3&lt;/b&gt;&lt;/font&gt;" style="rounded=0;whiteSpace=wrap;html=1;fillColor=#b1ddf0;strokeColor=#161717;" vertex="1" parent="1">
          <mxGeometry x="-230" y="180" width="40" height="60" as="geometry" />
        </mxCell>
        <mxCell id="31-ez5-0cQZQDLvbxCD5-5" value="&lt;font face=&quot;Verdana&quot; style=&quot;font-size: 16px;&quot;&gt;&lt;b&gt;2&lt;/b&gt;&lt;/font&gt;" style="rounded=0;whiteSpace=wrap;html=1;fillColor=#b1ddf0;strokeColor=#161717;" vertex="1" parent="1">
          <mxGeometry x="-190" y="200" width="40" height="40" as="geometry" />
        </mxCell>
        <mxCell id="31-ez5-0cQZQDLvbxCD5-6" value="&lt;font face=&quot;Verdana&quot; style=&quot;font-size: 16px;&quot;&gt;&lt;b&gt;1&lt;/b&gt;&lt;/font&gt;" style="rounded=0;whiteSpace=wrap;html=1;fillColor=#b1ddf0;strokeColor=#161717;" vertex="1" parent="1">
          <mxGeometry x="-390" y="220" width="40" height="20" as="geometry" />
        </mxCell>
        <mxCell id="31-ez5-0cQZQDLvbxCD5-7" value="&lt;font face=&quot;Verdana&quot; style=&quot;font-size: 16px;&quot;&gt;&lt;b&gt;1&lt;/b&gt;&lt;/font&gt;" style="rounded=0;whiteSpace=wrap;html=1;fillColor=#e1d5e7;strokeColor=#0d0c0d;" vertex="1" parent="1">
          <mxGeometry x="-350" y="240" width="40" height="30" as="geometry" />
        </mxCell>
        <mxCell id="31-ez5-0cQZQDLvbxCD5-8" value="&lt;font face=&quot;Verdana&quot; style=&quot;font-size: 16px;&quot;&gt;&lt;b&gt;2&lt;/b&gt;&lt;/font&gt;" style="rounded=0;whiteSpace=wrap;html=1;fillColor=#e1d5e7;strokeColor=#0d0c0d;" vertex="1" parent="1">
          <mxGeometry x="-310" y="240" width="40" height="30" as="geometry" />
        </mxCell>
        <mxCell id="31-ez5-0cQZQDLvbxCD5-9" value="&lt;font face=&quot;Verdana&quot; style=&quot;font-size: 16px;&quot;&gt;&lt;b&gt;3&lt;/b&gt;&lt;/font&gt;" style="rounded=0;whiteSpace=wrap;html=1;fillColor=#e1d5e7;strokeColor=#0d0c0d;" vertex="1" parent="1">
          <mxGeometry x="-270" y="240" width="40" height="30" as="geometry" />
        </mxCell>
        <mxCell id="31-ez5-0cQZQDLvbxCD5-10" value="&lt;font face=&quot;Verdana&quot; style=&quot;font-size: 16px;&quot;&gt;&lt;b&gt;4&lt;/b&gt;&lt;/font&gt;" style="rounded=0;whiteSpace=wrap;html=1;fillColor=#e1d5e7;strokeColor=#0d0c0d;" vertex="1" parent="1">
          <mxGeometry x="-230" y="240" width="40" height="30" as="geometry" />
        </mxCell>
        <mxCell id="31-ez5-0cQZQDLvbxCD5-11" value="&lt;font face=&quot;Verdana&quot; style=&quot;font-size: 16px;&quot;&gt;&lt;b&gt;5&lt;/b&gt;&lt;/font&gt;" style="rounded=0;whiteSpace=wrap;html=1;fillColor=#e1d5e7;strokeColor=#0d0c0d;" vertex="1" parent="1">
          <mxGeometry x="-190" y="240" width="40" height="30" as="geometry" />
        </mxCell>
        <mxCell id="31-ez5-0cQZQDLvbxCD5-12" value="&lt;font face=&quot;Verdana&quot; style=&quot;font-size: 16px;&quot;&gt;&lt;b&gt;4&lt;/b&gt;&lt;/font&gt;" style="rounded=0;whiteSpace=wrap;html=1;fillColor=#b1ddf0;strokeColor=#161717;" vertex="1" parent="1">
          <mxGeometry x="-270" y="160" width="40" height="80" as="geometry" />
        </mxCell>
        <mxCell id="31-ez5-0cQZQDLvbxCD5-13" value="&lt;font face=&quot;Verdana&quot;&gt;&lt;span style=&quot;font-size: 16px;&quot;&gt;&lt;b&gt;5&lt;/b&gt;&lt;/span&gt;&lt;/font&gt;" style="rounded=0;whiteSpace=wrap;html=1;fillColor=#b1ddf0;strokeColor=#161717;" vertex="1" parent="1">
          <mxGeometry x="-310" y="140" width="40" height="100" as="geometry" />
        </mxCell>
        <mxCell id="31-ez5-0cQZQDLvbxCD5-14" value="&lt;font face=&quot;Verdana&quot; style=&quot;font-size: 16px;&quot;&gt;&lt;b&gt;6&lt;/b&gt;&lt;/font&gt;" style="rounded=0;whiteSpace=wrap;html=1;fillColor=#e1d5e7;strokeColor=#0d0c0d;" vertex="1" parent="1">
          <mxGeometry x="-150" y="240" width="41" height="30" as="geometry" />
        </mxCell>
        <mxCell id="31-ez5-0cQZQDLvbxCD5-15" value="&lt;font face=&quot;Verdana&quot;&gt;&lt;span style=&quot;font-size: 16px;&quot;&gt;&lt;b&gt;7&lt;/b&gt;&lt;/span&gt;&lt;/font&gt;" style="rounded=0;whiteSpace=wrap;html=1;fillColor=#b1ddf0;strokeColor=#161717;" vertex="1" parent="1">
          <mxGeometry x="-350" y="100" width="40" height="140" as="geometry" />
        </mxCell>
        <mxCell id="31-ez5-0cQZQDLvbxCD5-16" value="&lt;font face=&quot;Verdana&quot;&gt;&lt;span style=&quot;font-size: 16px;&quot;&gt;&lt;b&gt;8&lt;/b&gt;&lt;/span&gt;&lt;/font&gt;" style="rounded=0;whiteSpace=wrap;html=1;fillColor=#bac8d3;strokeColor=#050505;" vertex="1" parent="1">
          <mxGeometry x="-150" y="80" width="40" height="160" as="geometry" />
        </mxCell>
        <mxCell id="31-ez5-0cQZQDLvbxCD5-17" value="&lt;font style=&quot;font-size: 16px;&quot; face=&quot;Verdana&quot;&gt;left&lt;br&gt;&lt;/font&gt;" style="text;html=1;align=center;verticalAlign=middle;resizable=0;points=[];autosize=1;strokeColor=none;fillColor=none;" vertex="1" parent="1">
          <mxGeometry x="-395" width="50" height="30" as="geometry" />
        </mxCell>
        <mxCell id="31-ez5-0cQZQDLvbxCD5-18" value="&lt;font style=&quot;font-size: 16px;&quot; face=&quot;Verdana&quot;&gt;right&lt;br&gt;j&lt;br&gt;&lt;/font&gt;" style="text;html=1;align=center;verticalAlign=middle;resizable=0;points=[];autosize=1;strokeColor=none;fillColor=none;" vertex="1" parent="1">
          <mxGeometry x="-160" y="-8" width="60" height="50" as="geometry" />
        </mxCell>
        <mxCell id="31-ez5-0cQZQDLvbxCD5-20" value="" style="endArrow=classic;html=1;rounded=0;entryX=0;entryY=0.5;entryDx=0;entryDy=0;" edge="1" parent="1">
          <mxGeometry width="50" height="50" relative="1" as="geometry">
            <mxPoint x="-370" y="40" as="sourcePoint" />
            <mxPoint x="-370" y="220" as="targetPoint" />
          </mxGeometry>
        </mxCell>
        <mxCell id="31-ez5-0cQZQDLvbxCD5-21" value="" style="endArrow=classic;html=1;rounded=0;" edge="1" parent="1">
          <mxGeometry width="50" height="50" relative="1" as="geometry">
            <mxPoint x="-130" y="40" as="sourcePoint" />
            <mxPoint x="-130" y="80" as="targetPoint" />
          </mxGeometry>
        </mxCell>
      </root>
    </mxGraphModel>
  </diagram>
</mxfile>
